<svg xmlns="http://www.w3.org/2000/svg" width="791" height="791" viewBox="0 0 791 791">
  <g id="icon" transform="translate(-1005 -655)">
    <rect id="Rectangle_4" data-name="Rectangle 4" width="791" height="791" transform="translate(1005 655)" fill="#ef233c"/>
    <g id="icon-2" data-name="icon" transform="translate(21.402 19.085)">
      <path id="icon-3" data-name="icon" d="M-793.585-662.971v-92.3a63,63,0,0,1,63-63,63,63,0,0,1,63,63v92.3a63,63,0,0,1-63,63A63,63,0,0,1-793.585-662.971Zm-171.415,0v-189a63,63,0,0,1,63-63,63,63,0,0,1,63,63v189a63,63,0,0,1-63,63A63,63,0,0,1-965-662.971Z" transform="translate(2201.58 1798.769)" fill="#fff" opacity="0.5"/>
      <path id="icon-4" data-name="icon" d="M-793.585-662.971v-92.3a63,63,0,0,1,63-63,63,63,0,0,1,63,63v92.3a63,63,0,0,1-63,63A63,63,0,0,1-793.585-662.971Zm-171.415,0v-189a63,63,0,0,1,63-63,63,63,0,0,1,63,63v189a63,63,0,0,1-63,63A63,63,0,0,1-965-662.971Z" transform="translate(2189.735 1779.31)" fill="#fff"/>
    </g>
  </g>
</svg>
