<svg xmlns="http://www.w3.org/2000/svg"
     width="875.679"
     height="275.312"
     viewBox="0 0 875.679 275.312">
    <g id="logo"
       transform="translate(-384 -831.88)">
        <path id="typo"
              d="M-127.282,57.729a69.314,69.314,0,0,1-26.976-5.367A73.291,73.291,0,0,1-177.28,37.109a73.291,73.291,0,0,1-15.253-23.021A69.314,69.314,0,0,1-197.9-12.888a69.314,69.314,0,0,1,5.367-26.976A73.291,73.291,0,0,1-177.28-62.886a73.291,73.291,0,0,1,23.021-15.253,69.315,69.315,0,0,1,26.976-5.367A68.337,68.337,0,0,1-84.912-69.382V-83.506h28.247V57.729H-84.912V43.606A68.337,68.337,0,0,1-127.282,57.729Zm0-28.247a41.771,41.771,0,0,0,21.327-5.649A41.639,41.639,0,0,0-90.561,8.438a41.771,41.771,0,0,0,5.649-21.327,41.771,41.771,0,0,0-5.649-21.327,41.639,41.639,0,0,0-15.395-15.395,41.771,41.771,0,0,0-21.327-5.649,41.771,41.771,0,0,0-21.327,5.649A41.639,41.639,0,0,0-164-34.215a41.771,41.771,0,0,0-5.649,21.327A41.771,41.771,0,0,0-164,8.438a41.639,41.639,0,0,0,15.395,15.395A41.771,41.771,0,0,0-127.282,29.482ZM19.6,57.729A33.418,33.418,0,0,1,3.5,53.775,38.054,38.054,0,0,1-9.21,42.476q-7.344-10.451-11.016-27.682a172.817,172.817,0,0,1-3.248-24.857q-.706-12.429-.706-27.117V-140H4.914V-37.181q0,30.224,3.39,45.76,2.542,12.994,6.214,16.948A8.984,8.984,0,0,0,19.6,28.211a46.514,46.514,0,0,0,6.779.424V57.729ZM53.216-83.506H81.463v14.124a68.337,68.337,0,0,1,42.371-14.124,69.314,69.314,0,0,1,26.976,5.367,73.291,73.291,0,0,1,23.021,15.253,73.292,73.292,0,0,1,15.253,23.021,69.315,69.315,0,0,1,5.367,26.976,69.314,69.314,0,0,1-5.367,26.976,73.292,73.292,0,0,1-15.253,23.021A73.291,73.291,0,0,1,150.81,52.362a69.314,69.314,0,0,1-26.976,5.367A68.337,68.337,0,0,1,81.463,43.606v70.618H53.216ZM123.834,29.482a41.771,41.771,0,0,0,21.327-5.649A41.639,41.639,0,0,0,160.555,8.438,41.771,41.771,0,0,0,166.2-12.888a41.771,41.771,0,0,0-5.649-21.327A41.639,41.639,0,0,0,145.16-49.609a41.771,41.771,0,0,0-21.327-5.649,41.771,41.771,0,0,0-21.327,5.649A41.639,41.639,0,0,0,87.113-34.215a41.771,41.771,0,0,0-5.649,21.327A41.771,41.771,0,0,0,87.113,8.438a41.639,41.639,0,0,0,15.395,15.395A41.771,41.771,0,0,0,123.834,29.482ZM284.842,57.729a69.314,69.314,0,0,1-26.976-5.367,73.291,73.291,0,0,1-23.021-15.253,73.291,73.291,0,0,1-15.253-23.021,69.314,69.314,0,0,1-5.367-26.976,69.314,69.314,0,0,1,5.367-26.976,73.291,73.291,0,0,1,15.253-23.021,73.291,73.291,0,0,1,23.021-15.253,69.315,69.315,0,0,1,26.976-5.367,68.337,68.337,0,0,1,42.371,14.124V-83.506H355.46V57.729H327.213V43.606A68.337,68.337,0,0,1,284.842,57.729Zm0-28.247a41.771,41.771,0,0,0,21.327-5.649A41.639,41.639,0,0,0,321.563,8.438a41.771,41.771,0,0,0,5.649-21.327,41.771,41.771,0,0,0-5.649-21.327,41.639,41.639,0,0,0-15.395-15.395,41.771,41.771,0,0,0-21.327-5.649,41.771,41.771,0,0,0-21.327,5.649,41.639,41.639,0,0,0-15.395,15.395,41.771,41.771,0,0,0-5.649,21.327,41.771,41.771,0,0,0,5.649,21.327,41.639,41.639,0,0,0,15.395,15.395A41.771,41.771,0,0,0,284.842,29.482Z"
              transform="translate(899.22 987.969)"
              fill="#ef233c"
              stroke="#ef233c"
              stroke-width="10" />
        <path id="icon"
              d="M-848-742.965v-63a43,43,0,0,1,43-43,43,43,0,0,1,43,43v63a43,43,0,0,1-43,43A43,43,0,0,1-848-742.965Zm-117,0v-129a43,43,0,0,1,43-43,43,43,0,0,1,43,43v129a43,43,0,0,1-43,43A43,43,0,0,1-965-742.965Z"
              transform="translate(1349 1746.845)"
              fill="#1c1917" />
    </g>
</svg>