<svg xmlns="http://www.w3.org/2000/svg"
     width="852.4"
     height="276.96"
     viewBox="0 0 852.4 276.96">
    <g transform="translate(-444 -831.6)">
        <path d="M-445.394-180.982c0-12.08,10.607-18.268,33.883-18.268h30.937v5.009c0,23.571-19.741,29.464-36.83,29.464C-433.02-164.777-445.394-170.375-445.394-180.982Zm-40.366,1.473c0,32.116,21.509,47.142,59.517,47.142,22.393,0,37.125-7.071,45.669-18.857v15.911H-340.8v-97.231c0-36.535-27.4-58.928-69.535-58.928-30.053,0-46.553,9.134-63.053,23.571l21.509,24.75c11.491-8.839,26.812-12.964,42.723-12.964,19.446,0,28.58,9.723,28.58,23.571v5.6H-417.4c-31.53,0-68.36,7.658-68.36,47.435ZM-303.968-350.4v215.087h39.776V-350.4Zm117.856,138.48c0-25.339,16.794-42.723,41.249-42.723s40.071,17.384,40.071,42.723-15.615,42.72-40.07,42.72-41.25-17.381-41.25-42.72ZM-225.888-73.44h39.776v-85.15c8.839,16.205,24.16,26.223,50.089,26.223,42.428,0,70.713-32.7,70.713-79.553s-28.285-79.553-70.713-79.553c-25.928,0-41.249,10.018-50.089,26.223v-23.276h-39.776ZM-3.436-180.982c0-12.08,10.607-18.268,33.884-18.268H61.385v5.009c0,23.571-19.741,29.464-36.83,29.464C8.939-164.777-3.436-170.375-3.436-180.982ZM-43.8-179.509c0,32.116,21.509,47.142,59.517,47.142,22.393,0,37.125-7.071,45.669-18.857v15.911h39.776v-97.231c0-36.535-27.4-58.928-69.535-58.928-30.053,0-46.553,9.134-63.053,23.571l21.509,24.75c11.491-8.839,26.812-12.964,42.723-12.964,19.446,0,28.58,9.723,28.58,23.571v5.6H24.555C-6.971-226.946-43.8-219.286-43.8-179.509Z"
              transform="translate(1195.238 1182)"
              fill="#ef233c" />
        <path d="M-847-741.646v-63a43,43,0,0,1,43-43,43,43,0,0,1,43,43v63a43,43,0,0,1-43,43A43,43,0,0,1-847-741.646Zm-117,0v-129a43,43,0,0,1,43-43,43,43,0,0,1,43,43v129a43,43,0,0,1-43,43A43,43,0,0,1-964-741.646Z"
              transform="translate(1408 1745.527)"
              fill="#1c1917" />
    </g>
</svg>